<svg width="40" height="41" viewBox="0 0 40 41" fill="none" xmlns="http://www.w3.org/2000/svg">
<path d="M19.9964 8.35449C13.3472 8.35449 7.94141 13.7589 7.94141 20.4081C7.94141 27.0496 13.3472 32.4627 19.9964 32.4627C26.6469 32.4627 32.0514 27.0491 32.0514 20.4081C32.0514 13.7589 26.6469 8.35449 19.9964 8.35449ZM19.9964 30.4164C14.4835 30.4164 9.98815 25.9314 9.98815 20.4081C9.98815 14.8953 14.4745 10.4008 19.9964 10.4008C25.5183 10.4008 30.0046 14.8948 30.0046 20.4081C30.0046 25.9223 25.5106 30.4164 19.9964 30.4164Z" fill="black"/>
<path d="M39.3433 22.0632L38.6166 21.0607C38.2746 20.5926 38.266 19.9503 38.6089 19.474L39.3184 18.4628C39.8777 17.669 40.0782 16.6665 39.8536 15.7139C39.6277 14.7613 39.0099 13.952 38.1489 13.4925L37.0625 12.9078C36.544 12.632 36.2696 12.0641 36.3612 11.4871L36.5694 10.2677C36.7282 9.3065 36.4696 8.32078 35.86 7.56096C35.2421 6.80024 34.3304 6.34163 33.3623 6.29944L32.1253 6.24954C31.5406 6.22414 31.0384 5.83085 30.8806 5.27153L30.5218 4.09303C30.104 2.64779 28.7585 1.63757 27.2466 1.63757C26.7871 1.63757 26.3276 1.72966 25.9012 1.91337L24.7648 2.39739C24.2386 2.62329 23.5954 2.48176 23.2198 2.05536L22.3929 1.13632C21.7501 0.417332 20.8233 0 19.863 0C18.8764 0 17.9415 0.426404 17.2892 1.16944L16.4872 2.10526C16.1116 2.53937 15.476 2.68997 14.9421 2.47314L13.7972 2.00591C13.3799 1.83853 12.9457 1.7469 12.5026 1.7469C10.9743 1.7469 9.6207 2.7748 9.21879 4.25315L8.89309 5.44708C8.74248 6.00731 8.24169 6.40831 7.65697 6.44142L6.42856 6.51672C5.45963 6.56662 4.54921 7.04292 3.94771 7.81136C3.3453 8.57979 3.10397 9.57458 3.27862 10.5267L3.50452 11.7384C3.61293 12.3145 3.33713 12.8915 2.82772 13.175L1.75037 13.7765C0.897558 14.2528 0.288344 15.0711 0.0792248 16.0237C-0.129895 16.9763 0.079225 17.9784 0.656231 18.7636L1.38293 19.7579C1.72496 20.2265 1.73404 20.8688 1.39064 21.3447L0.680727 22.3558C0.121412 23.1501 -0.0790889 24.1522 0.145907 25.1048C0.371811 26.0574 0.989643 26.8671 1.85016 27.3261L2.93659 27.9109C3.45507 28.1867 3.72952 28.7546 3.63743 29.3316L3.42922 30.5509C3.2709 31.5108 3.52901 32.4979 4.13914 33.2577C4.75697 34.0184 5.66875 34.477 6.63632 34.5188L7.87335 34.5687C8.45806 34.5941 8.95977 34.9865 9.11808 35.5462L9.46011 36.7324C9.87744 38.1777 11.2233 39.1888 12.7348 39.1888C13.1943 39.1888 13.6538 39.0972 14.0802 38.913L15.2152 38.4285C15.7423 38.2035 16.386 38.3451 16.7611 38.7715L17.5886 39.6896C18.2341 40.4086 19.1608 40.8259 20.1211 40.8259C21.1077 40.8259 22.0427 40.4004 22.695 39.6565L23.5042 38.7207C23.8807 38.2865 24.5154 38.1359 25.0502 38.3528L26.1942 38.8209C26.6115 38.9878 27.047 39.0799 27.4897 39.0799C29.018 39.0799 30.3716 38.052 30.7722 36.5737L31.0978 35.3788C31.2485 34.8195 31.7502 34.419 32.3349 34.3845L33.571 34.3101C34.549 34.2516 35.4508 33.783 36.0518 33.015C36.6543 32.2461 36.8956 31.2609 36.7209 30.3005L36.495 29.0889C36.3866 28.5119 36.6624 27.9358 37.1718 27.6523L38.2492 27.0499C39.102 26.574 39.7112 25.7553 39.9208 24.8031C40.1299 23.8505 39.9208 22.8485 39.3433 22.0632ZM37.9235 24.3599C37.8405 24.7446 37.5978 25.0621 37.2558 25.2549L36.1784 25.8564C34.8997 26.5659 34.2151 28.0111 34.4819 29.4477L34.7078 30.6594C34.7831 31.0526 34.6824 31.4369 34.441 31.7458C34.1984 32.0552 33.8472 32.2389 33.4467 32.2634L32.2183 32.3387C30.7563 32.423 29.5115 33.4251 29.1278 34.8372L28.8021 36.0234C28.6433 36.6159 28.0999 37.0255 27.4907 37.0255C27.3142 37.0255 27.1395 36.9924 26.9722 36.9257L25.8272 36.4575C25.4094 36.2902 24.9753 36.1981 24.5326 36.1981C23.5469 36.1981 22.6115 36.6245 21.9601 37.3675L21.1495 38.2961C20.8905 38.5959 20.5226 38.7629 20.1216 38.7629C19.7296 38.7629 19.3695 38.6045 19.1114 38.3124L18.284 37.3934C17.6407 36.6748 16.7135 36.257 15.7446 36.257C15.276 36.257 14.8255 36.3487 14.3991 36.5328L13.2628 37.0164C13.0877 37.0917 12.9131 37.1262 12.7289 37.1262C12.1265 37.1262 11.5926 36.7238 11.4252 36.1482L11.0832 34.962C10.6736 33.5589 9.41974 32.5723 7.95772 32.5061L6.7216 32.4562C6.32831 32.4398 5.9695 32.2634 5.72726 31.9544C5.47686 31.6455 5.37752 31.2618 5.44375 30.8771L5.65196 29.6578C5.89465 28.2121 5.19335 26.7836 3.89781 26.0905L2.81229 25.5058C2.46119 25.3221 2.2185 25.0041 2.12687 24.6198C2.03524 24.2356 2.11009 23.8432 2.34416 23.5257L3.05407 22.5146C3.89781 21.3211 3.8901 19.7253 3.02096 18.539L2.29426 17.5447C2.06064 17.2267 1.97627 16.8348 2.06835 16.4506C2.15273 16.0664 2.39496 15.7484 2.73745 15.5569L3.8148 14.9554C5.09265 14.2455 5.77852 12.8003 5.51043 11.3628L5.29315 10.1602C5.21785 9.76692 5.31855 9.3827 5.55988 9.07379C5.80257 8.76487 6.15367 8.58115 6.55421 8.55666L7.78262 8.48136C9.24464 8.39699 10.4803 7.39493 10.8736 5.98281L11.1993 4.78888C11.3576 4.19509 11.9015 3.78547 12.5107 3.78547C12.6867 3.78547 12.8618 3.81995 13.0292 3.88617L14.1741 4.3534C14.5915 4.52079 15.0256 4.61242 15.4688 4.61242C16.4545 4.61242 17.3903 4.18602 18.0413 3.44299L18.8519 2.51624C19.1109 2.21503 19.4788 2.04765 19.8798 2.04765C20.2717 2.04765 20.6319 2.20732 20.89 2.49945L21.717 3.41758C22.3606 4.13612 23.2874 4.5539 24.2568 4.5539C24.7249 4.5539 25.1758 4.46182 25.6022 4.2781L26.7385 3.79409C26.9136 3.71879 27.0883 3.68567 27.2725 3.68567C27.8749 3.68567 28.4088 4.08667 28.5762 4.66232L28.9182 5.84945C29.3278 7.2525 30.5816 8.23822 32.0436 8.3049L33.2798 8.35571C33.6731 8.37249 34.0319 8.54713 34.2823 8.8565C34.5336 9.16542 34.6329 9.54964 34.5667 9.93385L34.3576 11.1541C34.1149 12.5993 34.8171 14.0269 36.1117 14.7214L37.1981 15.3061C37.5493 15.4889 37.791 15.8069 37.8827 16.1911C37.9747 16.5753 37.9004 16.9686 37.6744 17.2852L36.965 18.2964C36.1213 19.4912 36.1285 21.0861 36.9981 22.2737L37.7248 23.2667C37.9235 23.5838 38.0079 23.9757 37.9235 24.3599Z" fill="black"/>
<path d="M22.9622 17.0928L18.4845 21.5447L17.0302 20.0827C16.6292 19.6817 15.9859 19.6817 15.5849 20.0827C15.1839 20.4837 15.1839 21.1269 15.5772 21.5283L17.7578 23.7175C17.9492 23.909 18.2087 24.0178 18.4845 24.0178C18.7512 24.0178 19.0107 23.909 19.203 23.7175L24.4074 18.5458C24.8084 18.1448 24.8084 17.5016 24.4165 17.1006C24.0155 16.6995 23.3632 16.6995 22.9622 17.0928Z" fill="black"/>
</svg>
