<svg width="40" height="40" viewBox="0 0 40 40" fill="none" xmlns="http://www.w3.org/2000/svg">
<path d="M20 0C8.9785 0 0 8.9785 0 20C0 31.0215 8.9785 40 20 40C31.0215 40 40 31.0215 40 20C40 8.9785 31.0215 0 20 0ZM20 37.8495C10.1613 37.8495 2.15054 29.8387 2.15054 20C2.15054 10.1613 10.1613 2.15054 20 2.15054C29.8387 2.15054 37.8495 10.1613 37.8495 20C37.8495 29.8387 29.8387 37.8495 20 37.8495Z" fill="black"/>
<path d="M32.3122 19.4086C32.3122 19.3548 32.3122 19.3548 32.2584 19.3011C32.2584 19.2473 32.2584 19.2473 32.2047 19.1936C32.2047 19.1398 32.1509 19.1398 32.1509 19.086C32.1509 19.0323 32.0971 19.0323 32.0971 18.9785C32.0971 18.9247 32.0434 18.9247 31.9896 18.871C31.9896 18.871 31.9896 18.8172 31.9358 18.8172L20.753 7.41936L20.6993 7.3656C20.6455 7.31183 20.6455 7.31183 20.5918 7.25807C20.538 7.25807 20.538 7.20431 20.4842 7.20431C20.4305 7.20431 20.4305 7.15054 20.3767 7.15054C20.3229 7.15054 20.3229 7.15054 20.2692 7.09678C20.2154 7.09678 20.2154 7.09678 20.1616 7.04301C20.1079 7.04301 20.1079 7.04301 20.0541 7.04301C20.0004 7.04301 20.0004 7.04301 19.9466 7.04301C19.8928 7.04301 19.8928 7.04301 19.8391 7.04301C19.7853 7.04301 19.7853 7.04301 19.7315 7.04301C19.6778 7.04301 19.6778 7.04301 19.624 7.09678C19.5703 7.09678 19.5703 7.09678 19.5165 7.15054C19.4627 7.15054 19.4627 7.20431 19.409 7.20431C19.3552 7.20431 19.3552 7.25807 19.3014 7.25807C19.2477 7.25807 19.2477 7.31183 19.1939 7.3656L19.1401 7.41936L8.01111 18.871C8.01111 18.871 8.01111 18.9247 7.95735 18.9247C7.90358 18.9785 7.90358 18.9785 7.84982 19.0323C7.84982 19.086 7.79606 19.086 7.79606 19.1398C7.79606 19.1936 7.74229 19.1936 7.74229 19.2473C7.74229 19.3011 7.74229 19.3011 7.68853 19.3548C7.68853 19.4086 7.68853 19.4086 7.63477 19.4624C7.63477 19.5161 7.63477 19.5699 7.63477 19.6237V19.6774C7.63477 19.7312 7.63477 19.8387 7.63477 19.8925C7.63477 19.9462 7.63477 19.9462 7.68853 20C7.68853 20.0538 7.68853 20.0538 7.74229 20.1075C7.74229 20.1613 7.79606 20.2151 7.79606 20.2688C7.79606 20.2688 7.79606 20.2688 7.79606 20.3226C7.84982 20.3763 7.90358 20.4301 7.95735 20.4839C7.95735 20.4839 8.01111 20.4839 8.01111 20.5376C8.06487 20.5914 8.06487 20.5914 8.11864 20.6452C8.1724 20.6452 8.1724 20.6989 8.22616 20.6989C8.27993 20.6989 8.27993 20.7527 8.33369 20.7527C8.38745 20.7527 8.38745 20.7527 8.44122 20.8065C8.49498 20.8065 8.49498 20.8065 8.54874 20.8065C8.60251 20.8065 8.71003 20.8065 8.7638 20.8065H11.5057V29.4624C11.5057 30.0538 11.9896 30.5376 12.581 30.5376H17.9036C18.495 30.5376 18.9789 30.0538 18.9789 29.4624V24.1936H20.0004H21.0219V29.4624C21.0219 30.0538 21.5057 30.5376 22.0971 30.5376H27.4197C28.0111 30.5376 28.495 30.0538 28.495 29.4624V20.6989H31.2369C31.2907 20.6989 31.3982 20.6989 31.452 20.6989H31.5057C31.5595 20.6989 31.6133 20.6989 31.6133 20.6452C31.667 20.6452 31.667 20.5914 31.7208 20.5914C31.7746 20.5914 31.7746 20.5376 31.8283 20.5376C31.8821 20.4839 31.8821 20.4839 31.9358 20.4301C31.9358 20.4301 31.9896 20.4301 31.9896 20.3763C32.0434 20.3226 32.0971 20.2688 32.1509 20.2151C32.1509 20.2151 32.1509 20.2151 32.1509 20.1613C32.2047 20.1075 32.2047 20.0538 32.2047 20C32.2047 19.9462 32.2047 19.9462 32.2584 19.8925C32.2584 19.8387 32.2584 19.8387 32.3122 19.785C32.3122 19.7312 32.3122 19.6237 32.3122 19.5699V19.5161C32.3122 19.4624 32.3122 19.4624 32.3122 19.4086ZM27.4197 18.5484C26.8283 18.5484 26.3444 19.0323 26.3444 19.6237V28.2796H23.1724V23.0108C23.1724 22.4194 22.6885 21.9355 22.0971 21.9355H20.0004H17.9036C17.3122 21.9355 16.8283 22.4194 16.8283 23.0108V28.2796H13.6563V19.6237C13.6563 19.0323 13.1724 18.5484 12.581 18.5484H11.2907L20.0004 9.67742L28.6563 18.4946H27.4197V18.5484Z" fill="black"/>
</svg>
