<svg width="11" height="15" viewBox="0 0 11 15" fill="none" xmlns="http://www.w3.org/2000/svg">
<path d="M9 0H1.5C0.675 0 0 0.675 0 1.5V13.5C0 14.325 0.675 15 1.5 15H9C9.825 15 10.5 14.325 10.5 13.5V1.5C10.5 0.675 9.825 0 9 0ZM9 1.5V9H1.5V1.5H9ZM1.5 13.5V10.5H9V13.5H1.5Z" fill="black"/>
<path d="M5.25 12.75C5.66421 12.75 6 12.4142 6 12C6 11.5858 5.66421 11.25 5.25 11.25C4.83579 11.25 4.5 11.5858 4.5 12C4.5 12.4142 4.83579 12.75 5.25 12.75Z" fill="black"/>
<path d="M6.75 2.25H3.75V3.75H6.75V2.25Z" fill="black"/>
</svg>
